<svg 
    xmlns="http://www.w3.org/2000/svg" 
    width="32" 
    height="32" 
    viewBox="0 0 33 32" 
    fill="none"
>
    <path 
        d="M17 2.5C14.2694 2.5 12.0282 4.75391 12.0282 7.5V8.5H7.11864L7.0565 9.4375L6.06215 27.4375L6 28.5H28L27.9379 27.4375L26.9435 9.4375L26.8814 8.5H21.9718V7.5C21.9718 4.75391 19.7306 2.5 17 2.5ZM17 4.5C18.6469 4.5 19.9831 5.84375 19.9831 7.5V8.5H14.0169V7.5C14.0169 5.84375 15.3531 4.5 17 4.5ZM8.98305 10.5H12.0282V13.5H14.0169V10.5H19.9831V13.5H21.9718V10.5H25.0169L25.887 26.5H8.11299L8.98305 10.5Z"
        fill="white"
    >
    </path>
</svg>