<svg 
    xmlns="http://www.w3.org/2000/svg" 
    width="33" 
    height="32" 
    viewBox="0 0 33 32" 
    fill="none"
>
    <path 
        d="M12.7857 3C9.20564 3 6.28571 5.91992 6.28571 9.5C6.28571 11.738 7.42829 13.7257 9.15848 14.8973C5.84682 16.3192 3.5 19.6055 3.5 23.4286H5.35714C5.35714 19.3153 8.67243 16 12.7857 16C14.0625 16 15.2522 16.3337 16.2969 16.8996C15.2667 18.1763 14.6429 19.8086 14.6429 21.5714C14.6429 25.6629 17.9799 29 22.0714 29C26.1629 29 29.5 25.6629 29.5 21.5714C29.5 17.4799 26.1629 14.1429 22.0714 14.1429C20.4501 14.1429 18.9411 14.6761 17.7188 15.5647C17.3089 15.3072 16.8627 15.0896 16.4129 14.8973C18.1431 13.7257 19.2857 11.738 19.2857 9.5C19.2857 5.91992 16.3658 3 12.7857 3ZM12.7857 4.85714C15.361 4.85714 17.4286 6.92467 17.4286 9.5C17.4286 12.0753 15.361 14.1429 12.7857 14.1429C10.2104 14.1429 8.14286 12.0753 8.14286 9.5C8.14286 6.92467 10.2104 4.85714 12.7857 4.85714ZM22.0714 16C25.1582 16 27.6429 18.4847 27.6429 21.5714C27.6429 24.6582 25.1582 27.1429 22.0714 27.1429C18.9847 27.1429 16.5 24.6582 16.5 21.5714C16.5 18.4847 18.9847 16 22.0714 16ZM21.1429 17.8571V20.6429H18.3571V22.5H21.1429V25.2857H23V22.5H25.7857V20.6429H23V17.8571H21.1429Z" 
        fill="white"
    >
    </path>
</svg>