<svg 
    xmlns="http://www.w3.org/2000/svg" 
    width="32" 
    height="32" 
    viewBox="0 0 33 32" 
    fill="none"
>
    <path 
        d="M16.5 3C11.8734 3 8.1 6.71626 8.1 11.2727C8.1 14.1211 9.57656 16.6509 11.8125 18.142C7.53281 19.9517 4.5 24.1342 4.5 29H6.9C6.9 23.7649 11.1844 19.5455 16.5 19.5455C21.8156 19.5455 26.1 23.7649 26.1 29H28.5C28.5 24.1342 25.4672 19.9517 21.1875 18.142C23.4234 16.6509 24.9 14.1211 24.9 11.2727C24.9 6.71626 21.1266 3 16.5 3ZM16.5 5.36364C19.8281 5.36364 22.5 7.99503 22.5 11.2727C22.5 14.5504 19.8281 17.1818 16.5 17.1818C13.1719 17.1818 10.5 14.5504 10.5 11.2727C10.5 7.99503 13.1719 5.36364 16.5 5.36364Z" 
        fill="white">
    </path>
</svg>